<svg width="132" height="64" viewBox="0 0 132 64" fill="none" xmlns="http://www.w3.org/2000/svg">
  <path d="M129.286 32.2116C129.286 48.6375 113.723 62.0525 94.6658 62.0525L45.074 62.0525C26.0483 62.0525 10.4534 48.6375 10.4534 32.2116C10.4534 15.8125 26.0171 2.37068 45.074 2.37068L94.6658 2.37068C113.692 2.37068 129.286 15.7857 129.286 32.2116Z" fill="#F4BA46"/>
  <path d="M131.563 31.8621C131.532 32.2922 131.938 32.1309 132 32.2116C131.875 31.4857 131.439 31.889 131.563 31.8621Z" fill="#F4BA46"/>
  <path d="M129.692 25.0336L129.879 25.1143C129.661 24.8186 129.442 24.496 129.224 24.2003C129.38 24.4691 129.536 24.7379 129.692 25.0336Z" fill="#F4BA46"/>
  <path d="M127.197 18.931C127.041 19.3343 127.353 19.8451 127.727 20.4096C128.07 20.9742 128.538 21.6194 128.6 22.184L128.538 22.399L129.255 22.7485C128.663 21.4312 127.509 19.872 127.197 18.931Z" fill="#F4BA46"/>
  <path d="M126.511 15.248C126.479 15.4093 126.292 15.2749 126.292 15.248C126.261 15.248 126.417 15.3286 126.947 16.0007C126.916 15.9201 126.916 15.8932 126.916 15.8394C126.822 15.705 126.698 15.5437 126.511 15.248Z" fill="#F4BA46"/>
  <path d="M126.885 15.8394C126.822 15.3555 127.322 16.4577 126.885 15.8394V15.8394Z" fill="#F4BA46"/>
  <path d="M124.67 13.1779L125.481 13.8231C125.481 13.5812 124.951 12.8822 125.232 13.0973C124.858 12.7209 124.67 12.6134 124.577 12.6671C124.546 12.7209 124.608 12.9091 124.67 13.1779Z" fill="#F4BA46"/>
  <path d="M123.672 12.7478L124.078 13.0704C124.078 12.9629 124.015 12.8553 123.672 12.7478Z" fill="#F4BA46"/>
  <path d="M124.951 13.7963C124.67 13.5543 124.39 13.3123 124.109 13.0704C124.109 13.2317 123.953 13.3392 124.483 13.393C124.265 13.4468 124.546 13.5005 124.951 13.7963Z" fill="#F4BA46"/>
  <path d="M125.263 14.307C125.481 14.8178 125.793 15.4093 125.045 14.7372C126.199 16.162 126.448 15.7319 125.263 14.307Z" fill="#F4BA46"/>
  <path d="M126.417 18.9042C126.479 19.1192 126.511 19.3612 126.573 19.5763L127.041 20.0064C126.791 19.7913 126.573 18.7697 126.417 18.9042Z" fill="#F4BA46"/>
  <path d="M120.491 8.66147C120.335 8.71524 120.491 9.11849 120.429 9.2798C120.647 9.41421 120.896 9.52175 121.115 9.65616C120.865 9.33356 120.366 8.82277 120.491 8.66147Z" fill="#F4BA46"/>
  <path d="M120.397 9.25291L119.368 8.71524C120.117 9.36045 120.335 9.41421 120.397 9.25291Z" fill="#F4BA46"/>
  <path d="M122.986 13.0166L123.766 13.5274L124.514 14.0651C124.234 13.85 123.922 13.6081 123.641 13.393L122.737 12.7747L122.986 13.0166Z" fill="#F4BA46"/>
  <path d="M116.967 6.10751C117.216 6.1344 117.466 6.18817 117.715 6.24193C117.31 6.1344 116.873 6.05375 116.436 5.97309L116.967 6.10751Z" fill="#F4BA46"/>
  <path d="M114.409 4.6558C114.97 4.68269 114.066 3.98371 114.596 4.11813C113.848 3.76864 113.099 3.6611 112.444 3.55357C112.787 3.63422 113.068 3.79552 113.411 3.95682C113.754 4.14501 114.097 4.36008 114.409 4.6558Z" fill="#F4BA46"/>
  <path d="M111.384 3.36538C111.727 3.44603 112.07 3.49979 112.475 3.55356C112.132 3.47291 111.758 3.39226 111.384 3.36538Z" fill="#F4BA46"/>
  <path d="M117.902 7.55924C117.871 7.4517 117.902 7.20975 117.434 6.77961L117.559 7.2904C117.653 7.37105 117.777 7.4517 117.902 7.55924Z" fill="#F4BA46"/>
  <path d="M117.559 7.31728C117.154 7.02156 116.904 6.83338 116.779 6.75273C116.873 6.80649 117.122 6.99468 117.559 7.31728Z" fill="#F4BA46"/>
  <path d="M117.996 7.613C117.965 7.58612 117.933 7.55924 117.902 7.55924C117.933 7.58612 117.933 7.613 117.996 7.613Z" fill="#F4BA46"/>
  <path d="M121.271 10.839C120.647 10.5433 119.493 9.81747 120.179 10.8659C120.74 11.0003 120.335 10.382 121.271 10.839Z" fill="#F4BA46"/>
  <path d="M118.121 8.25822L118.994 9.01096C119.056 8.93031 118.994 8.71524 119.306 8.82278L118.121 8.25822Z" fill="#F4BA46"/>
  <path d="M117.59 8.01626C117.777 8.09691 117.965 8.17756 118.121 8.25822L117.809 7.98938L117.59 8.01626Z" fill="#F4BA46"/>
  <path d="M113.099 4.54826C112.818 4.49449 112.538 4.41384 112.288 4.30631C112.007 4.19878 111.727 4.09124 111.415 3.95682C112.007 4.27943 112.631 4.62891 113.255 4.95152C113.411 4.89775 113.785 4.87087 113.099 4.54826Z" fill="#F4BA46"/>
  <path d="M115.313 5.83868C115.282 5.83868 115.22 5.81179 115.189 5.78491C115.251 5.86556 115.282 5.89244 115.313 5.83868Z" fill="#F4BA46"/>
  <path d="M105.364 1.83301C105.395 1.85989 105.426 1.88678 105.457 1.91366C105.457 1.88678 105.489 1.88678 105.489 1.85989L105.364 1.83301Z" fill="#F4BA46"/>
  <path d="M113.317 5.05905C113.754 5.32789 114.066 5.43542 114.378 5.48919C114.003 5.32789 113.66 5.1397 113.255 4.95152C113.193 4.9784 113.161 5.00529 113.317 5.05905Z" fill="#F4BA46"/>
  <path d="M109.637 2.82771C109.855 2.98901 110.136 3.17719 110.385 3.3385C110.198 3.15031 109.762 2.77394 109.637 2.82771Z" fill="#F4BA46"/>
  <path d="M115.126 5.62361C115.158 5.62361 115.189 5.6505 115.189 5.6505C115.095 5.51608 115.095 5.54296 115.126 5.62361Z" fill="#F4BA46"/>
  <path d="M115.126 5.62361C114.846 5.54296 114.627 5.51608 114.378 5.46231C114.658 5.59673 114.939 5.70426 115.189 5.78491C115.158 5.75803 115.126 5.67738 115.126 5.62361Z" fill="#F4BA46"/>
  <path d="M102.806 3.52668C102.9 3.39226 103.274 3.28472 103.773 3.33849C104.272 3.39225 104.865 3.52668 105.333 3.84928C106.487 3.92993 106.206 2.74705 105.395 1.88677C105.302 2.02119 105.27 2.12872 104.023 2.02119C104.21 2.1556 104.802 2.42445 105.239 2.63951C105.676 2.88147 105.894 3.09653 105.364 3.09653C103.804 2.85458 104.179 2.6664 103.461 2.31691C103.96 2.8277 101.34 2.47821 101.559 3.12342L102.931 3.17719C102.993 3.31161 102.463 3.36538 102.806 3.52668Z" fill="#F4BA46"/>
  <path d="M107.641 2.61263L108.14 2.74705C107.89 2.63951 107.672 2.5051 107.454 2.3438C107.235 2.18249 106.986 2.02119 106.674 1.80612C105.801 1.72547 105.613 1.77924 105.52 1.85989C105.925 1.96742 106.3 2.10184 106.705 2.23626L107.298 2.42445L107.89 2.63952L107.641 2.61263Z" fill="#F4BA46"/>
  <path d="M110.23 3.4998C109.699 3.6611 108.545 3.39226 109.044 3.98371C110.385 4.46761 110.105 4.06436 110.978 4.27943C108.795 3.44603 111.695 4.36008 110.261 3.52668C110.729 3.63422 111.103 3.79552 111.477 3.92994C111.103 3.71487 110.76 3.4998 110.448 3.31161C110.479 3.3385 110.479 3.3385 110.479 3.3385C110.541 3.41915 110.573 3.44603 110.479 3.39226C110.479 3.39226 110.448 3.39226 110.417 3.39226C110.354 3.44603 110.292 3.47292 110.23 3.4998C109.637 3.1772 110.167 3.36538 110.385 3.41915C110.417 3.41915 110.417 3.39226 110.448 3.39226C109.668 3.15031 108.92 2.93524 108.14 2.74705C108.358 2.85459 108.639 2.96212 108.982 3.06966C109.294 3.17719 109.699 3.31161 110.23 3.4998Z" fill="#F4BA46"/>
  <path d="M118.713 10.6509C118.682 10.5971 118.713 10.5702 118.713 10.5433C118.588 10.4896 118.526 10.4627 118.713 10.6509Z" fill="#F4BA46"/>
  <path d="M118.214 9.925C118.37 9.97877 118.588 9.97877 118.963 10.3283C119.212 10.6777 118.838 10.4358 118.744 10.5433C119.056 10.6777 119.774 11.0541 119.181 10.3014L119.025 10.2476C118.464 9.6024 117.871 8.6077 118.027 8.66147C117.965 9.03784 117.996 9.36045 118.214 9.925Z" fill="#F4BA46"/>
  <path d="M114.44 6.53765L113.13 5.97309L112.694 5.81179C112.912 6.02686 113.13 6.26881 113.349 6.51076L113.411 6.32258C114.284 6.88714 114.222 6.59142 114.44 6.53765Z" fill="#F4BA46"/>
  <path d="M105.177 1.59106L105.582 1.32222L104.272 1.53729L105.177 1.59106Z" fill="#F4BA46"/>
  <path d="M102.65 1.08026L102.806 0.784546L102.089 0.838314L102.65 1.08026Z" fill="#F4BA46"/>
  <path d="M22.0248 51.7829C22.1807 51.8636 22.3055 51.9442 22.4614 52.0249C22.2743 51.9174 22.1495 51.8367 22.0248 51.7829Z" fill="#F4BA46"/>
  <path d="M19.592 49.3365L19.4048 49.3634C19.5608 49.4441 19.6544 49.4441 19.592 49.3365Z" fill="#F4BA46"/>
  <path d="M41.7367 0.488825C41.3001 0.354407 40.801 0.219988 40.4579 0.16622C40.1149 0.0855699 39.8965 0.0855661 39.9589 0.273753L40.2708 0.596358C40.8634 0.461939 41.3313 0.435057 41.7367 0.488825Z" fill="#F4BA46"/>
  <path d="M11.9817 23.7432C12.044 23.6895 12.1064 23.6357 12.1688 23.5819C12.0752 23.3937 12.0129 23.2056 11.9505 23.0443C11.9505 23.2593 11.9505 23.5013 11.9817 23.7432Z" fill="#F4BA46"/>
  <path d="M13.4476 24.6035C13.2604 24.8724 13.0733 25.1143 12.9485 25.3831C13.0733 25.2218 13.2293 24.9799 13.4476 24.6035Z" fill="#F4BA46"/>
  <path d="M40.0213 59.4179C40.2396 59.3373 40.4579 59.2297 40.6763 59.1491C40.2084 59.0953 40.0837 59.1222 40.0525 59.176C40.0213 59.2297 40.0837 59.3373 40.0213 59.4179Z" fill="#F4BA46"/>
  <path d="M77.0748 0.435056C76.3886 0.300637 75.8272 0.246869 75.3281 0.219987C76.1703 0.435056 76.8564 0.730779 77.0748 0.435056Z" fill="#F4BA46"/>
  <path d="M17.8142 53.3422C18.0949 53.5304 18.282 53.5841 18.3444 53.5035C18.0325 53.3422 17.8453 53.2347 17.8142 53.3422Z" fill="#F4BA46"/>
  <path d="M73.3008 0.246865C73.4256 0.273751 73.5503 0.300633 73.6751 0.327519C74.1741 0.273751 74.7043 0.219983 75.3281 0.246865C74.7043 0.0855646 73.987 0.0049143 73.3008 0.246865Z" fill="#F4BA46"/>
  <path d="M115.594 53.3422C115.657 53.3153 115.688 53.2884 115.75 53.2884C115.719 53.2347 115.688 53.2884 115.594 53.3422Z" fill="#F4BA46"/>
  <path d="M130.378 38.2604C130.378 38.4755 130.285 38.7981 130.191 39.1207C130.253 38.9594 130.347 38.7175 130.378 38.2604Z" fill="#F4BA46"/>
  <path d="M92.3266 0.166222C92.389 0.13934 92.8256 0.13934 92.3266 0.166222V0.166222Z" fill="#F4BA46"/>
  <path d="M94.853 1.56417C94.7282 1.59106 94.6658 1.64482 94.6346 1.72548C94.6658 1.64482 94.7594 1.59106 94.853 1.56417Z" fill="#F4BA46"/>
  <path d="M68.1233 2.42445L68.0921 2.42445C68.2481 2.47822 68.2169 2.47822 68.1233 2.42445Z" fill="#F4BA46"/>
  <path d="M93.1063 0.327519C92.9192 0.27375 92.7009 0.246868 92.4513 0.219986C92.5449 0.246868 92.732 0.27375 93.1063 0.327519Z" fill="#F4BA46"/>
  <path d="M92.9816 0.166218C93.1687 0.166218 93.2935 0.1931 93.4494 0.1931C93.5118 0.139332 93.4494 0.0855676 92.9816 0.166218Z" fill="#F4BA46"/>
  <path d="M91.578 0.1931C91.8899 0.1931 92.1394 0.1931 92.4201 0.219986C92.3266 0.1931 92.2642 0.166218 92.2954 0.166218C92.1706 0.166218 91.9523 0.166214 91.578 0.1931Z" fill="#F4BA46"/>
  <path d="M76.4822 60.9772C76.5134 60.9772 76.5445 61.004 76.6069 61.004C77.1372 60.8696 76.9188 60.8965 76.4822 60.9772Z" fill="#F4BA46"/>
  <path d="M29.947 7.20975C29.9782 7.20975 29.9782 7.18286 29.9782 7.18286C29.947 7.18286 29.9158 7.18287 29.947 7.20975Z" fill="#F4BA46"/>
  <path d="M28.5434 8.17757C28.9489 7.47859 29.3232 7.31729 29.8846 7.18287C29.5415 6.9678 29.1672 6.75273 28.793 6.53766C28.6994 7.10222 28.637 7.63989 28.5434 8.17757Z" fill="#F4BA46"/>
  <path d="M29.1984 56.4069C28.9177 56.1381 28.6058 55.8961 28.3251 55.6004C29.8846 55.8155 30.6644 56.3801 29.947 55.5198C29.7598 55.7348 29.4168 55.7348 28.9801 55.6004C28.5434 55.4929 28.0444 55.1972 27.5454 54.9552C27.0463 54.6864 26.5785 54.3907 26.1418 54.2294C25.7364 54.0681 25.3933 53.9874 25.1438 54.2025L24.6759 53.5841C24.8631 53.7186 24.9254 53.6917 25.0814 53.8261C24.6447 53.2078 24.3016 53.1809 23.865 53.1809C23.6466 53.1809 23.3971 53.1809 23.1164 53.0734C22.8357 52.9927 22.555 52.8045 22.2119 52.4819C21.9936 52.24 21.8065 52.0249 21.7753 51.8636C21.7129 51.7292 21.7753 51.6754 21.9936 51.7829C21.5569 51.5141 21.1203 51.2453 20.6836 50.9764C20.4029 50.6538 20.6524 50.6001 20.9331 50.9227L20.091 50.1699C19.8103 49.928 19.5608 49.6591 19.3113 49.3903L19.3425 49.3903C19.1553 49.3365 18.8746 49.2021 18.6251 49.0677C18.3756 48.9333 18.0949 48.772 17.9389 48.6644C17.7206 48.1268 18.2196 48.8257 18.2508 48.6375C17.9077 48.3687 17.5646 48.0999 17.2216 47.831C17.1904 47.2665 18.0637 47.9386 18.5627 48.6107C18.7187 47.8579 18.5003 47.7235 18.1261 47.4547C17.7518 47.1858 17.2216 46.8363 16.8785 45.6803L17.627 46.5406C17.7206 46.0836 17.627 45.7072 17.4399 45.304C17.2527 44.9007 17.0344 44.4168 16.9408 43.7985C16.9097 43.9598 16.972 44.605 16.9408 45.0889C16.9097 45.3308 16.8785 45.5459 16.7849 45.6266C16.6913 45.7072 16.5354 45.6803 16.2859 45.4384C16.2235 45.2502 16.1611 45.062 16.0363 44.8469C15.9116 44.6319 15.6933 44.4168 15.4125 44.148C15.6309 44.0673 15.5997 43.8791 15.5061 43.6372C15.4125 43.3952 15.1942 43.0726 15.0071 42.6962L15.5997 42.5618C15.0695 41.8091 14.7887 41.9704 14.3521 41.5402C14.1961 41.0563 14.1961 40.7337 14.2897 40.5187C14.3833 40.2767 14.5704 40.1154 14.7264 39.9541C14.5392 39.2014 14.4457 39.4971 14.2897 39.7659C14.1649 40.0348 14.009 40.3036 13.6347 39.4164C13.51 38.0991 13.0109 37.2657 12.4495 35.7065C12.5119 34.7656 12.8238 35.8409 12.9485 35.4914C12.7302 35.2495 12.5743 34.9806 12.3871 34.7118C12.3871 34.4967 12.5431 34.5774 12.6055 34.6042C12.4807 34.2548 12.3248 34.2548 12.1688 34.201C12.0129 34.1472 11.8569 34.0397 11.7633 33.4751C11.4514 33.3407 11.6386 32.7493 11.8881 32.0503C12.0129 31.7008 12.1376 31.3244 12.1688 30.9481C12.2312 30.5717 12.2312 30.1953 12.0752 29.8458C12.2624 29.5232 12.4183 30.034 12.6678 29.9534C12.5743 29.4963 12.5431 29.1469 12.5119 28.878C12.4807 28.6092 12.4495 28.421 12.4183 28.2328C12.3559 27.8564 12.3248 27.5338 12.1376 26.7273C12.3559 26.3241 12.6055 25.9208 12.855 25.5176C12.1688 26.3778 11.9505 25.0605 11.9193 23.8777C11.6074 24.1734 11.3267 24.4153 11.1707 24.6035C11.2643 23.9852 11.3267 23.3669 11.4826 22.7754C11.6698 22.5872 11.7945 22.8292 11.9193 23.1787C11.9193 23.0443 11.9193 22.9367 11.9193 22.8292C12.3871 22.2646 12.5743 22.6948 12.7302 23.2056C12.5431 23.3669 12.3248 23.555 12.1376 23.7163C12.3559 24.2271 12.6055 24.711 12.9797 24.711C12.9485 24.5766 12.9485 24.3616 13.0109 24.1196C13.0733 24.254 13.1357 24.3347 13.1981 24.3078C13.2916 24.254 13.1981 24.0658 13.1669 23.7432L13.9466 23.555L13.7283 23.3937C13.9466 23.0711 14.1338 22.7216 14.3521 22.399L15.0071 21.4312C15.0383 21.0011 15.0695 20.5978 15.0695 20.1677C15.1006 19.7376 15.1318 19.3074 15.2254 18.8235C15.3814 17.8826 15.7244 16.861 16.4418 15.6781C16.4418 16.4577 17.0032 16.1889 17.4711 16.4846C17.0032 16.6459 16.7225 17.0761 16.473 17.6406C16.2547 18.2052 16.0051 18.8235 15.6309 19.415C16.0675 18.8235 16.2235 19.0655 16.2235 19.2805C16.3482 18.9042 16.5042 18.5278 16.6289 18.1514C16.6913 17.9632 16.7849 17.775 16.8473 17.5869L17.0968 17.0223C17.2839 17.1567 17.4399 17.103 17.5958 16.9417C17.6894 16.861 17.783 16.7803 17.8765 16.6728C18.0013 16.5653 18.1261 16.4577 18.2508 16.3771C17.7206 16.3233 17.8765 15.8932 18.2508 15.3555C18.438 15.0867 18.6875 14.791 18.9058 14.5221C19.0306 14.3877 19.1241 14.2533 19.2177 14.1189C19.3113 13.9844 19.4048 13.8769 19.4672 13.7694C19.7479 13.9038 19.8103 14.2533 18.9058 15.1136C19.2801 14.9523 19.4672 14.7641 19.592 14.549C19.7167 14.3339 19.7791 14.092 19.8103 13.85C19.9039 13.3661 19.9974 12.8822 20.746 12.5865C20.5277 12.8016 20.3717 12.8822 20.3717 13.0704C20.5277 12.7478 20.9955 12.3177 21.401 12.0219C21.8064 11.7531 22.1807 11.6187 22.0872 11.8337L21.8376 12.0219C22.6798 11.4036 23.9274 10.4358 25.019 9.6024C25.5804 9.19915 26.0483 8.79589 26.4225 8.47328C26.7968 8.15068 26.984 7.88185 26.9528 7.69366C27.0151 7.74743 27.2335 8.52705 27.2023 8.71524C27.3582 8.39263 27.5142 8.09691 27.6701 7.77431L28.2004 6.83338C28.5434 6.18817 28.9801 5.59673 29.4168 4.9784C29.4168 5.32789 29.8846 5.6505 30.1965 6.05375C30.4772 6.45701 30.602 6.88715 29.8846 7.39794C30.1341 7.34417 30.4148 7.26352 30.7579 7.1291C31.101 6.99468 31.4753 6.83338 31.9119 6.53766C31.5689 6.59143 30.6955 6.08063 31.101 5.86557C31.8808 5.91933 32.1303 5.91933 32.411 5.91933C32.6917 5.91933 33.0036 5.86557 33.9081 5.86557C33.3467 5.89245 33.5338 4.87087 34.3759 4.6558C34.3136 4.8171 34.7814 5.4892 34.5319 5.67738C35.0621 5.19347 35.6547 4.73645 36.2473 4.27943C35.7795 4.57514 36.4033 5.03217 36.9023 5.19347C36.6528 5.05905 38.6489 4.84399 39.1792 4.70957L38.2435 4.62891C39.4287 4.52138 39.9277 4.09124 40.4891 3.71487C40.7698 3.52668 41.0505 3.31161 41.3936 3.15031C41.7679 2.98901 42.2046 2.88148 42.8284 2.85459C42.5477 3.06966 42.2046 4.03747 43.421 4.09124C43.6705 3.84929 44.2631 3.28473 45.1052 2.72017C45.9474 2.1825 46.9766 1.64482 48.0994 1.45664L48.5049 1.72547L50.1892 1.42975C49.1599 2.12873 46.1969 3.58045 44.6062 4.17189C45.5107 4.36008 44.8557 4.49449 46.2592 4.44073C46.7583 4.68268 45.5107 4.8171 45.074 4.84398L48.3178 5.00529C48.1618 4.46762 50.813 4.46761 50.6882 4.01059L47.1638 4.57515C47.0078 4.03747 49.2223 3.04278 51.5303 3.12343C52.1229 3.3385 51.0937 4.09124 51.1249 4.27942C51.4368 4.09124 53.3081 3.92994 53.5265 4.06436L52.5596 4.36008C53.8384 4.57514 54.6493 3.63422 56.2088 4.17189C56.739 4.19877 57.7995 4.87087 57.893 4.54826C57.0197 3.92994 56.8638 2.0212 57.4252 1.56417C57.6123 1.61794 60.2323 2.15561 60.8249 2.45133C61.6982 2.93524 59.5149 3.60733 60.2635 4.03747C60.2947 3.87617 60.7937 3.71487 60.9808 3.63422C61.5423 3.76864 60.7625 4.09124 61.9789 4.03747C62.1972 3.4998 64.4429 4.09124 62.5403 3.58045C63.7255 3.41915 63.8191 3.68799 65.1915 3.6611C64.7548 3.31161 66.439 2.45133 67.6243 2.29003C67.5619 2.42445 67.8114 2.61263 67.9362 2.69329C70.369 2.74705 71.6789 2.98901 73.9558 2.98901C74.1741 3.12343 75.2658 3.28473 74.7979 3.52668C75.1098 3.41915 75.4217 3.23096 76.1391 3.23096C77.5114 3.71487 74.5796 3.31161 75.6088 3.87617C75.7024 3.55356 77.4179 3.44603 78.4159 3.23096C78.104 2.74705 76.1079 3.12343 75.1098 3.33849C75.1098 2.6664 76.8564 1.94054 79.2269 1.61794C81.1294 1.45664 80.0378 2.04808 80.3809 1.96743C83.9365 2.07496 83.4063 0.784543 86.3381 1.26845C87.4922 1.69859 86.4005 2.12873 86.65 2.45133C85.1217 2.61264 84.2796 2.1825 83.2503 2.1825L84.5291 2.39756C84.0301 2.53198 83.0008 2.63952 82.4394 2.53198C83.4063 2.90835 88.4278 2.61263 91.1726 2.96212C91.6716 2.82771 92.5137 2.6664 92.1082 2.5051L91.2349 2.55887C90.424 2.20938 92.8568 2.07496 91.7652 1.91366C92.9504 1.67171 94.198 1.26845 95.9134 1.5104L96.1941 2.02119C96.1629 1.88677 95.1025 1.69859 94.6346 1.83301C94.9777 1.72547 95.6327 1.91366 96.2565 2.04808C96.9115 2.20938 97.5353 2.31691 97.9719 2.02119L96.8179 1.59105C97.4417 1.5104 98.1279 1.3491 98.8764 1.29533C99.2507 1.26845 99.625 1.24157 99.9993 1.26845C100.374 1.29533 100.748 1.3491 101.122 1.45663C100.53 0.865192 100.779 1.45663 99.7809 0.730774C100.186 1.13403 99.2195 1.02649 98.315 0.91896C97.4105 0.838306 96.5684 0.811424 97.2858 1.21468C96.7555 0.83831 96.2877 0.730774 95.7575 0.677006C95.5079 0.650124 95.2272 0.623241 94.9153 0.542587C94.7594 0.515705 94.6034 0.461941 94.4475 0.435055C94.2915 0.381287 94.1356 0.327519 93.9485 0.27375C93.9796 0.435055 94.4475 0.596356 93.2311 0.515701C93.1687 0.56947 93.0439 0.623238 92.9504 0.650124C92.9192 0.650124 92.888 0.650124 92.8568 0.650124C92.888 0.650124 92.888 0.650124 92.9192 0.677006C92.8568 0.703892 92.8568 0.703892 92.9504 0.677006C93.2311 0.75766 93.4806 0.838307 93.5742 0.918961C92.9816 1.29533 91.0478 1.26845 90.3928 1.48352C89.6754 1.40287 90.7047 1.29533 90.2992 1.13403L89.3324 1.42975C89.2388 1.08027 87.3986 0.838311 89.114 0.623242L87.5857 0.596356C86.6812 0.381287 85.4336 0.300633 84.6851 0.461937C83.9677 0.381287 82.8449 0.865197 83.4999 0.569474L81.0983 0.784543L81.0671 0.703892C78.6966 0.650124 76.2015 1.29533 73.4879 0.650125C72.677 0.730775 71.8661 0.865193 70.5249 0.757661L70.2754 0.435056C69.2461 0.542592 67.1876 0.112451 66.7509 0.435056C65.6593 -0.398341 61.7918 0.246866 59.9828 0.112447L59.9204 0.515703C58.6728 0.488821 57.4876 0.596357 55.9593 0.784544L56.0528 1.13403C54.7117 1.42975 52.6532 0.865194 50.5323 0.918963C50.6882 0.784544 51.2184 0.81143 51.5927 0.89208C50.3451 0.488825 49.0039 0.623243 47.7252 0.811426C47.0702 0.892081 46.4464 0.999613 45.8226 1.0265C45.5107 1.05338 45.1988 1.05338 44.9181 1.0265C44.6062 0.999613 44.2943 0.972727 43.9824 0.918963C43.3898 1.05338 42.9531 1.0265 42.5165 0.972731C42.5789 0.972731 42.61 0.945845 42.6724 0.945845C42.61 0.945845 42.5165 0.945845 42.4229 0.945845C42.1422 0.892081 41.8615 0.838313 41.5808 0.811427C41.8303 0.892081 42.0798 0.945845 42.2981 0.945845C41.8303 0.972731 41.1441 1.05338 40.4579 1.24157L40.1149 0.892081C40.0525 0.892081 40.0213 0.918963 39.9589 0.918963C39.2727 0.865195 39.4599 1.16091 39.8653 1.40287C39.7094 1.45664 39.5534 1.51041 39.3975 1.56417C39.2415 1.61794 39.1168 1.69859 39.0232 1.75236C38.7113 1.48352 38.2747 1.61794 37.8068 1.72547C37.339 1.85989 36.8711 1.99431 36.4345 1.75236C36.3409 1.85989 36.0914 1.96743 35.7795 2.07496C35.4676 2.20938 35.0621 2.3438 34.6566 2.5051C34.2512 2.63952 33.8769 2.8277 33.5962 3.01589C33.3155 3.20408 33.1283 3.39226 33.0972 3.58045C33.0348 3.4998 32.8476 3.52668 33.1907 3.41915C33.0036 3.44603 32.8164 3.4998 32.6293 3.52668C32.4422 3.58045 32.2862 3.60733 32.0991 3.68798C31.756 3.79552 31.4441 3.92994 31.1634 4.14501C30.9762 4.03747 30.8203 3.90306 30.6332 3.79552C30.2277 4.19878 29.8534 4.60203 29.4479 4.9784C28.4187 5.08594 27.9508 5.11282 28.637 4.38696C28.1692 4.76334 27.8573 5.00529 27.5766 5.19347C27.327 5.38166 27.1399 5.51607 26.9528 5.62361C26.6097 5.86557 26.2666 6.08063 25.6116 6.77961L25.4868 6.45701C24.863 6.80649 24.2081 7.72054 23.6778 7.74742C23.2412 7.82808 22.6486 8.15068 21.9 8.58082C21.5569 8.82277 21.1515 9.09161 20.746 9.38733C20.3405 9.68305 19.9351 10.0325 19.4984 10.382C17.8142 11.78 16.0987 13.5543 14.6328 14.8985C15.319 14.8716 14.9135 15.1673 14.4768 15.5168C14.009 15.8932 13.4476 16.3502 13.7907 16.5922C13.4476 16.6459 13.0109 17.0492 13.1669 16.4309C12.9485 16.861 12.699 17.2105 12.4807 17.5331C12.2624 17.8557 12.044 18.1514 11.8569 18.4203C11.7633 18.5547 11.6698 18.6891 11.6074 18.8235C11.545 18.9579 11.4826 19.0923 11.4202 19.2537C11.3267 19.5494 11.2643 19.8451 11.2643 20.1946C10.9212 20.3021 11.1083 19.7107 10.89 19.8182C10.89 19.8989 10.8588 20.0602 10.8276 20.1946C10.7965 20.3559 10.7341 20.4903 10.6093 20.571C10.391 20.7054 10.5157 20.2484 10.5469 19.9257C9.736 21.7538 10.4534 22.1571 11.0772 22.5066C10.7341 22.9098 10.5157 23.2324 10.4534 23.5282C10.391 23.8508 10.4222 24.1465 10.5469 24.5497C10.2038 24.8186 9.79838 25.3025 10.0791 24.1465C10.0167 24.3078 9.86076 24.6035 9.736 25.0068C9.61124 25.41 9.45529 25.867 9.33053 26.3241C9.1122 27.2381 9.01863 28.0984 9.33053 28.179C9.14339 28.3672 9.14339 29.0931 9.20577 29.2544C9.1122 29.9803 9.04982 30.3835 9.01863 30.7868C9.20577 30.8405 9.20577 31.2438 9.20577 31.9428L9.29934 31.5395C9.98552 32.1041 9.45529 32.7224 9.58005 33.8784L9.51767 33.8784C9.45529 34.5505 9.4241 34.9537 9.45529 35.2226C9.45529 35.4914 9.51767 35.6258 9.58005 35.7603C9.64243 35.8947 9.67362 36.0291 9.70481 36.2979C9.70481 36.4323 9.70481 36.5936 9.70481 36.8087C9.70481 37.0238 9.70481 37.2926 9.70481 37.6152L10.1103 37.4002C10.3598 37.427 10.4846 37.5883 10.5157 37.8303C10.5469 37.9647 10.5469 38.0991 10.5469 38.2604C10.5469 38.4217 10.5469 38.6099 10.5469 38.7981C10.5469 39.1745 10.5157 39.6046 10.5781 40.0079C10.6405 40.4111 10.7341 40.8413 10.9524 41.1639L11.0148 40.5993C11.1707 40.7875 11.2019 41.0295 11.1707 41.2983C11.1707 41.5671 11.1084 41.8897 11.046 42.2392C10.89 42.9113 10.7341 43.5834 10.8588 44.0135C10.8588 44.2286 10.6093 43.7716 10.4222 43.5565C10.6405 44.7125 10.8276 44.7394 11.046 44.6319C11.2643 44.5512 11.5138 44.3899 11.9817 45.1158C11.8569 45.519 11.046 45.0351 11.545 46.0836C11.5762 46.2718 11.7633 46.5137 12.0129 46.8095C12.2624 47.1052 12.6055 47.4547 12.9797 47.8041C13.6971 48.53 14.508 49.3365 14.7576 50.1161C14.7576 49.928 14.7264 49.7129 14.8199 49.6322C14.8823 49.5516 15.0383 49.6054 15.3814 49.8473C15.5997 50.0624 15.7868 50.385 15.974 50.7076C16.1611 51.0302 16.3794 51.4066 16.5978 51.7561C16.8161 52.1055 17.0656 52.4281 17.3463 52.697C17.627 52.9658 17.9389 53.154 18.282 53.2347C18.3444 53.3691 18.3444 53.4497 18.3132 53.5035C19.1553 54.0681 20.9331 55.3854 21.7129 55.4391C21.6505 55.8155 21.9312 56.2187 22.4302 56.5951C22.6798 56.7833 22.9605 56.9446 23.2724 57.1328C23.5843 57.2941 23.9274 57.4554 24.2704 57.6167C24.9254 57.9393 25.5804 58.1813 26.0171 58.4232C26.4537 58.6921 26.6721 58.9071 26.4849 59.176C26.9528 59.391 27.4206 59.633 27.8885 59.8212L29.3232 60.4126L29.2608 60.4933C31.101 61.3267 31.9119 61.246 32.6917 61.1922C33.0972 61.4073 32.7229 61.4073 32.6605 61.4611C33.3467 61.7299 33.8769 61.945 34.3447 62.0794C34.8126 62.2138 35.1869 62.2945 35.5612 62.3751C35.9354 62.4558 36.3097 62.4558 36.7464 62.4558C36.9647 62.4558 37.2142 62.4558 37.4637 62.4289C37.5885 62.4289 37.7444 62.4289 37.8692 62.402C38.0251 62.402 38.1811 62.3751 38.337 62.3751L38.493 62.8053C38.6801 62.7784 39.0232 62.8321 39.4911 62.9397C39.9589 63.0472 40.5515 63.1816 41.2377 63.316C41.9239 63.4236 42.6724 63.5311 43.421 63.5849C44.1695 63.6118 45.0117 63.6118 45.6666 63.4773C45.6355 63.5311 45.5731 63.6118 45.3547 63.6655C48.5049 63.2085 52.9027 64.7678 54.0567 63.316L56.1464 62.9666C53.4641 62.859 56.5519 62.3213 55.4291 62.1063C56.4895 62.0256 58.1738 62.5364 56.8638 62.6171L56.6455 62.5364C56.1776 63.2892 59.9828 62.8053 59.9204 63.316C65.2227 63.2892 70.4002 63.6924 75.3593 63.7193L74.7979 63.1279L76.5757 63.2085C77.0436 63.3429 77.1995 63.6655 75.9519 63.6386C76.6069 63.9613 78.0105 63.3698 78.0728 63.2354C80.5056 63.4773 77.1372 63.9344 77.8545 63.9344L78.8526 63.8806L78.6343 63.8C79.4452 63.558 79.5388 63.316 81.0047 63.3429C81.9404 63.4505 81.4725 63.7193 81.8468 63.7193C81.8468 63.7731 81.9716 63.7731 82.4082 63.7462L84.5915 63.8L83.7182 63.3429C84.6851 63.101 85.7767 63.3698 84.7787 62.8321C86.2446 63.6386 92.9192 63.1279 93.8237 63.3698C94.1668 63.2892 94.4787 63.2354 94.853 63.1816C95.196 63.1279 95.5703 63.101 95.9446 63.0741C96.1317 63.0741 96.3189 63.0472 96.506 63.0472C96.6931 63.0203 96.8803 63.0203 97.0674 62.9934C97.4729 62.9666 97.8784 62.9397 98.2838 62.9397C98.0655 62.9128 97.8784 62.7515 97.9407 62.6171C97.9719 62.5364 98.0655 62.4826 98.2215 62.4289C98.3774 62.3751 98.6269 62.3213 99.0012 62.2945C98.8141 62.859 99.5002 62.9128 100.405 62.859C100.841 62.8321 101.372 62.7784 101.839 62.7784C102.307 62.7515 102.775 62.7784 103.118 62.9128C102.806 62.8321 102.931 62.7515 103.243 62.644C103.399 62.5902 103.586 62.5364 103.804 62.4558C104.023 62.3751 104.272 62.3213 104.491 62.2407C105.426 61.9719 106.237 61.6224 105.333 61.488C106.518 61.2191 105.551 61.8643 106.549 61.8374C107.235 61.5417 107.921 61.246 108.67 61.004C109.044 60.8696 109.419 60.7352 109.824 60.6008C110.011 60.547 110.23 60.4664 110.417 60.4126C110.604 60.332 110.822 60.2782 111.009 60.1975C112.6 59.633 114.253 58.9071 115.719 57.9393C115.657 57.8049 115.033 57.9124 115.532 57.3479C116.218 57.2403 116.904 57.079 117.59 56.8908C118.121 56.4338 117.497 55.8961 118.869 55.5198C118.62 55.5467 118.276 55.5467 118.62 55.2509C120.085 54.3369 121.395 53.2615 122.549 52.0518C123.704 50.842 124.733 49.4978 125.637 48.1267C127.446 45.3577 128.881 42.4812 130.472 39.524C129.941 40.3036 130.066 39.739 130.222 39.0938C130.035 39.4971 129.817 39.0132 129.598 39.0401L129.91 38.4217L130.191 37.8034C130.378 37.4002 130.596 36.97 130.752 36.5399C130.628 36.4055 130.565 36.1635 130.565 35.8678C130.565 35.5721 130.628 35.2226 130.628 34.9C130.69 34.2279 130.721 33.5827 130.441 33.4214C130.472 33.6902 130.472 33.9859 130.503 34.2548C130.191 33.6902 129.786 34.0666 129.318 34.5236C129.099 34.7387 128.85 35.0075 128.632 35.1688C128.382 35.357 128.132 35.4376 127.945 35.3839C128.101 35.6796 128.07 36.0291 127.977 36.3786C127.852 36.7281 127.633 37.1044 127.415 37.5077C127.228 37.9109 126.978 38.3142 126.854 38.7443C126.729 39.1745 126.667 39.6584 126.791 40.1692C126.479 40.5187 126.635 39.7659 126.355 39.9272C126.448 40.1961 126.511 40.4918 126.417 40.8144C126.323 41.137 126.168 41.5402 125.887 41.9973C125.887 41.9435 125.856 41.8897 125.856 41.8628C125.731 42.2123 125.575 42.5349 125.419 42.8307C125.357 42.992 125.294 43.1264 125.201 43.2608C125.107 43.3952 125.045 43.5296 124.982 43.6641C124.826 43.9329 124.67 44.1748 124.514 44.4168C124.359 44.6588 124.171 44.9007 124.015 45.1158C123.329 46.0567 122.518 46.9707 121.333 48.2612L121.863 48.2881C121.333 48.8526 121.115 48.9064 120.803 49.0946C120.772 49.5785 121.146 49.2021 121.52 48.7988C121.863 48.3956 122.269 47.9654 122.3 48.4762C121.957 48.5569 121.583 48.8526 121.146 49.2559C120.928 49.4441 120.709 49.6591 120.491 49.9011C120.366 50.0086 120.273 50.143 120.148 50.2506L119.805 50.6C119.555 50.8151 119.337 51.0571 119.119 51.2721C118.869 51.4603 118.651 51.6485 118.432 51.8098C117.996 52.1324 117.59 52.2937 117.278 52.24C116.374 52.9927 117.902 52.3475 116.967 53.1002C116.811 53.1002 116.686 53.1271 116.53 53.1271L116.53 53.5304C115.844 53.9605 115.313 53.9605 115.158 53.8261C115.345 53.7454 115.563 53.4766 115.688 53.3422C115.189 53.5573 114.627 53.9336 114.128 54.3369C113.629 54.7133 113.193 55.0627 113.037 55.1165L114.128 54.6326C112.818 55.6004 111.196 56.4607 109.512 57.2134C107.828 57.9662 106.112 58.6114 104.584 59.2835L104.896 59.391C104.303 59.6599 103.867 59.7674 103.524 59.848C103.181 59.9287 102.9 59.9556 102.619 59.9825C102.058 60.0093 101.496 60.0631 100.124 60.332L100.218 60.2782C100.093 60.332 99.9369 60.4126 99.7809 60.4664C99.625 60.5201 99.469 60.5739 99.2819 60.6008C98.9388 60.6814 98.5645 60.7352 98.1591 60.7621C98.5022 60.6008 98.1591 60.5739 97.8472 60.4664C97.5353 60.3857 97.2546 60.3051 97.6912 60.1438C97.0051 60.2782 96.5996 60.3857 96.3189 60.4395C96.0382 60.4933 95.8822 60.547 95.7887 60.6008C95.5703 60.7083 95.4767 60.8696 94.5099 61.2191L94.0732 60.9234C93.4182 61.1922 93.3558 61.3267 91.8899 61.4073C93.1063 61.1385 90.9542 60.9503 92.2954 60.6008C89.2076 59.9556 87.6793 61.2729 86.2758 60.3051C84.841 61.1385 88.9581 60.7621 88.1472 60.9503C88.8021 61.2191 86.9619 61.5686 85.9951 61.488C84.997 61.4611 84.3108 60.4395 81.8156 60.4395C82.0651 60.4395 82.0651 60.3857 82.3147 60.3857C81.379 60.1707 80.4745 60.6814 79.3516 60.332C78.6966 60.8427 77.8545 60.3051 77.6674 60.9503L79.9442 60.789C78.6343 60.9503 77.449 61.703 75.297 61.3535C75.4529 61.2191 76.1079 61.0578 76.5445 60.9503C75.9207 60.7621 75.3281 61.0847 74.7043 60.8696C74.8915 60.2244 77.4802 60.7352 78.8838 60.2513C78.2288 59.9825 76.2638 60.7083 76.95 60.0093C75.9519 60.8965 74.486 59.9018 72.8018 60.5739L72.9265 60.1975C72.6458 60.2513 72.1156 60.4395 71.6166 60.4395L72.5211 59.9556C71.1487 60.3857 69.9011 59.5792 68.5911 59.8212C71.3358 59.8212 69.2149 60.2782 70.369 60.5739C67.0005 61.0847 68.4352 59.5792 64.63 59.7674C65.1291 59.7136 66.5638 60.0094 65.7529 60.1707C65.0355 60.09 64.0686 59.9556 63.632 59.7405C61.1368 59.8212 64.0062 60.1438 62.9458 60.3588C62.1037 59.9018 61.6982 60.547 60.6066 60.7083L60.6066 60.332C57.7371 60.09 59.858 61.1385 57.2693 60.8427L58.3609 60.3051L57.0197 60.4395L57.3004 60.0094C55.8345 60.332 55.3979 60.2513 53.9631 60.1169C54.3062 60.3857 53.776 60.8159 52.4972 60.8427C51.6239 60.6008 52.9963 60.4664 51.1872 60.5201C51.5927 60.2782 52.0294 59.9825 52.8091 60.332C52.9027 60.1975 53.2146 60.09 53.277 59.9556C52.3413 59.6867 50.9377 59.9018 50.2827 59.9018C50.5323 59.9287 50.8442 59.9287 51.0001 59.9825L48.4113 60.5201C48.0059 60.3857 48.3178 60.2513 48.6609 60.1438C48.1306 60.1975 47.7564 60.3588 47.0078 60.3857C47.1949 60.0631 47.1638 59.7405 48.2554 59.6061L45.7914 59.9556C45.6978 59.8749 45.3859 59.7943 45.1364 59.6867C44.8869 59.5792 44.731 59.4986 44.8557 59.4448C44.2319 59.3373 43.4522 59.4986 42.61 59.5523C42.3917 59.5792 42.1734 59.6061 41.9862 59.6061C41.7679 59.633 41.5496 59.6061 41.3313 59.6061C40.8946 59.5792 40.4579 59.5523 40.0525 59.4448C39.9589 59.4986 39.7718 59.5254 39.3975 59.4986C38.6178 59.3641 37.9316 59.0684 37.183 58.8802C36.4345 58.6383 35.6547 58.477 34.6878 58.3963C34.4071 58.1275 34.1576 57.8318 33.9081 57.5629C33.2219 57.4016 33.4714 57.6705 33.5962 57.9124C33.7521 58.1544 33.7833 58.3963 32.5669 58.1006C30.8827 57.6436 32.1927 57.4285 31.7248 57.079C31.257 57.079 30.6332 56.9984 29.947 56.864C29.6039 56.7833 29.2608 56.6489 28.9489 56.4876C28.6058 56.3263 28.2939 56.1112 28.0444 55.8155C28.4499 55.9768 28.7618 56.2187 29.1984 56.4069ZM16.3482 45.3846C16.5978 45.6266 17.2216 46.0298 17.0968 46.3255C16.473 46.2449 16.5042 45.9223 16.3482 45.3846ZM13.7283 21.6732C13.7595 21.942 13.5412 22.2377 13.2293 22.5872C13.2916 22.2915 13.4476 21.9958 13.7283 21.6732ZM86.6188 0.488823C86.5877 0.488823 86.5877 0.48882 86.5877 0.515702C85.7143 0.354401 86.0262 0.408173 86.6188 0.488823ZM88.3655 0.650124C88.5526 0.596356 88.5214 0.542591 88.459 0.488823C88.3343 0.596356 87.9288 0.59636 87.4922 0.569474C87.6169 0.67701 87.8353 0.730774 88.3655 0.650124ZM82.0651 63.6118L81.722 63.5042C82.4706 63.3967 82.2835 63.4773 82.0651 63.6118Z" fill="#F4BA46"/>
  <path d="M13.2604 24.496C13.1669 24.5497 13.0733 24.5766 12.9797 24.5766C13.0421 24.711 13.1045 24.7379 13.2604 24.496Z" fill="#F4BA46"/>
  <path d="M39.8965 59.4448C39.9277 59.4448 39.9277 59.4448 39.9589 59.4448C39.9901 59.4179 40.0213 59.4179 40.0213 59.391L39.8965 59.4448Z" fill="#F4BA46"/>
  <path d="M61.1056 3.95682C60.7313 3.90305 60.5442 3.8224 60.4194 3.76864C60.3882 3.84929 60.5442 3.92994 61.1056 3.95682Z" fill="#F4BA46"/>
  <path d="M97.9407 0.112446L96.7243 0.139332C97.3169 0.166218 97.5041 0.246868 97.816 0.327518C97.7848 0.246868 97.5665 0.112446 97.9407 0.112446Z" fill="#F4BA46"/>
  <path d="M107.173 4.44073C107.36 4.44073 107.485 4.54826 107.672 4.54826L107.703 4.36008C107.048 4.14501 106.518 4.14501 107.173 4.44073Z" fill="#F4BA46"/>
  <path d="M98.8764 1.51041C98.9076 1.67171 99.0948 1.75236 99.3755 1.77924C99.6562 1.80613 100.062 1.80613 100.467 1.85989C100.405 1.85989 100.374 1.85989 100.311 1.83301C100.467 1.61794 100.342 1.51041 100.03 1.48352C99.7809 1.45664 99.3131 1.48352 98.8764 1.51041Z" fill="#F4BA46"/>
  <path d="M100.654 1.88678C100.904 1.91366 101.153 1.94054 101.403 1.99431C101.559 1.80613 101.122 1.88678 100.654 1.88678Z" fill="#F4BA46"/>
  <path d="M90.6111 0.435055C90.9854 0.515705 90.8607 0.00491357 91.0478 0.139332C91.4845 -0.26392 88.5526 0.650124 90.6111 0.435055Z" fill="#F4BA46"/>
  <path d="M99.3755 2.63952L99.1571 2.20938L98.6581 2.47821L99.3755 2.63952Z" fill="#F4BA46"/>
  <path d="M93.1375 2.07496L94.3851 2.1825C94.3539 2.12873 94.5099 2.07497 94.7282 2.04808C93.9796 2.0212 93.1063 1.94054 93.1375 2.07496Z" fill="#F4BA46"/>
  <path d="M94.7594 2.04807C95.1648 2.07496 95.5703 2.07496 95.7887 1.9943C95.5391 1.9943 95.0713 1.9943 94.7594 2.04807Z" fill="#F4BA46"/>
  <path d="M97.6288 2.61263L97.2858 2.5051L96.3813 2.39756L97.6288 2.61263Z" fill="#F4BA46"/>
  <path d="M79.5699 1.99431L78.1976 2.10185C78.0728 2.23627 78.4471 2.31692 78.9462 2.26315C79.2892 2.1825 79.7883 2.12873 79.5699 1.99431Z" fill="#F4BA46"/>
  <path d="M83.7494 3.09654C83.3751 3.01589 83.3439 2.93524 83.1568 2.80082L83.1256 3.31161L83.7494 3.09654Z" fill="#F4BA46"/>
  <path d="M79.7259 3.20408C79.6011 3.33849 77.7298 3.60733 79.4764 3.58045C79.6323 3.44603 81.0047 3.31161 79.7259 3.20408Z" fill="#F4BA46"/>
  <path d="M58.9847 2.58576L59.3278 2.55887L59.2966 1.75236L58.9847 2.58576Z" fill="#F4BA46"/>
  <path d="M41.0194 4.76333C41.7679 4.76333 41.8615 4.6558 41.9239 4.52138C41.9862 4.38696 42.0174 4.27943 42.7348 4.36008C43.0779 4.14501 41.5808 4.22566 41.9239 4.03747C41.0194 4.33319 40.5203 4.27943 41.0194 4.76333Z" fill="#F4BA46"/>
  <path d="M41.9239 4.03747C42.0798 3.98371 42.2358 3.95682 42.3917 3.87617C42.111 3.95682 41.9862 4.01059 41.9239 4.03747Z" fill="#F4BA46"/>
  <path d="M131.439 34.8462L131.719 33.9053L131.345 34.4967L131.439 34.8462Z" fill="#F4BA46"/>
  <path d="M130.846 32.9912L131.47 32.7762L130.94 32.2116C130.94 32.4267 130.971 32.8299 130.846 32.9912Z" fill="#F4BA46"/>
  <path d="M16.2859 42.8307L16.1299 42.8307C16.0363 42.992 16.1299 43.1802 16.2859 43.5565L16.2859 42.8307Z" fill="#F4BA46"/>
  <path d="M23.3347 52.1593L23.1788 52.0249L23.1164 52.6163L23.3347 52.1593Z" fill="#F4BA46"/>
  <path d="M32.7229 56.7833C32.3486 56.5951 31.8184 56.5414 31.4129 56.3263C32.3174 56.622 32.5669 57.3747 32.7229 56.7833Z" fill="#F4BA46"/>
  <path d="M29.8206 10.5342C27.3999 8.28613 22.3821 8.82719 20.3729 12.2072C14.3026 22.3932 1.91854 24.5089 4.55662 39.4072C7.78904 57.6621 57.2374 48.919 54.0028 30.6517C51.3603 15.7284 35.0431 15.3876 29.8206 10.5342Z" fill="#F4F5E7"/>
  <path d="M4.19378 35.7781C4.21333 36.8942 4.32676 38.1096 4.55655 39.4072C7.78897 57.6621 57.2373 48.919 54.0027 30.6517C53.7862 29.4289 53.4719 28.3006 53.0845 27.2625C51.7988 43.0615 10.6299 50.287 4.19378 35.7781Z" fill="#F0E3D8"/>
  <path d="M28.0191 11.9985C28.1 14.9698 30.9002 16.0568 31.3784 14.8783C31.9583 13.4115 28.8658 12.6851 28.0191 11.9985Z" fill="#F0E3D8"/>
  <path d="M21.1268 17.5429C23.004 17.5837 22.3723 14.3754 22.6686 13.3191C19.9847 14.5408 19.8638 17.522 21.1268 17.5429Z" fill="#F0E3D8"/>
  <path d="M25.5003 13.0751C24.6795 15.4082 25.2856 18.5438 26.5203 18.2608C28.5153 17.8175 26.0859 15.0176 25.5003 13.0751Z" fill="#F0E3D8"/>
  <path d="M20.6486 28.5402C20.2697 26.8314 18.5903 25.7518 16.9015 26.1281C15.2127 26.5043 14.1391 28.2001 14.518 29.9089C14.8969 31.6177 16.5764 32.6973 18.2652 32.3211C19.9518 31.9323 21.0275 30.249 20.6486 28.5402ZM17.1497 28.9668C16.7659 29.601 16.0356 29.8589 15.5209 29.5383C14.9939 29.2198 14.8816 28.4418 15.2654 27.8076C15.6492 27.1734 16.3794 26.9154 16.8941 27.2361C17.4089 27.5568 17.5212 28.3347 17.1497 28.9668ZM19.8969 30.6165C19.6808 30.9765 19.25 31.13 18.949 30.9388C18.6481 30.7476 18.5831 30.3087 18.797 29.9362C19.0131 29.5762 19.4438 29.4228 19.7448 29.614C20.0458 29.8052 20.113 30.2566 19.8969 30.6165Z" fill="#926544"/>
  <path d="M39.951 25.1223C39.572 23.4135 37.8926 22.3339 36.2038 22.7102C34.515 23.0864 33.4414 24.7822 33.8203 26.491C34.1992 28.1998 35.8787 29.2794 37.5675 28.9032C39.2664 28.5123 40.3299 26.8312 39.951 25.1223ZM36.4559 25.3551C35.9994 25.9379 35.2391 26.0982 34.7627 25.7064C34.2884 25.3271 34.2647 24.5463 34.7212 23.9636C35.1777 23.3809 35.938 23.2205 36.4144 23.6123C36.901 23.9894 36.9124 24.7724 36.4559 25.3551ZM39.3767 27.0514C39.1606 27.4114 38.7298 27.5649 38.4288 27.3737C38.1278 27.1825 38.0628 26.7436 38.2767 26.3711C38.4928 26.0111 38.9236 25.8576 39.2246 26.0488C39.5379 26.2379 39.6051 26.6892 39.3767 27.0514Z" fill="#926544"/>
  <path d="M18.8447 37.0958C20.7407 36.7601 22.1313 35.6612 21.9508 34.6415C21.7702 33.6217 20.0868 33.0672 18.1908 33.4029C16.2948 33.7386 14.9041 34.8375 15.0847 35.8573C15.2653 36.877 16.9487 37.4316 18.8447 37.0958Z" fill="#F5BDAB"/>
  <path d="M39.3416 34.6362C41.2376 34.3005 42.6282 33.2016 42.4477 32.1818C42.2671 31.1621 40.5837 30.6076 38.6877 30.9433C36.7917 31.279 35.401 32.3779 35.5816 33.3976C35.7622 34.4174 37.4456 34.9719 39.3416 34.6362Z" fill="#F5BDAB"/>
  <path d="M32.4544 32.2875C33.491 33.185 33.0071 35.2653 30.2073 35.7611C27.4075 36.2568 26.3457 34.2829 26.9042 33.2703C27.2206 32.6867 28.2167 32.7805 29.6351 32.5294C31.0535 32.2782 31.9444 31.8502 32.4544 32.2875Z" fill="#926544"/>
  <path d="M47.8453 50.1287C47.4257 49.6122 47.2158 49.1523 47.2158 48.7488C47.2158 48.3292 47.5628 47.7804 48.2568 47.1026C48.6603 46.7152 49.088 46.5215 49.5399 46.5215C49.9918 46.5215 50.6213 46.925 51.4282 47.732C51.6542 48.0064 51.977 48.2727 52.3966 48.5309C52.8162 48.773 53.2036 48.894 53.5586 48.894C55.0596 48.894 55.8101 48.2807 55.8101 47.0541C55.8101 46.6829 55.6003 46.3763 55.1807 46.1342C54.7772 45.876 54.2688 45.6904 53.6555 45.5774C53.0422 45.4644 52.3805 45.2869 51.6703 45.0448C50.9602 44.7865 50.2985 44.488 49.6852 44.149C49.0719 43.8101 48.5554 43.2775 48.1358 42.5512C47.7323 41.8088 47.5306 40.9212 47.5306 39.8882C47.5306 38.468 48.0551 37.2333 49.1042 36.1842C50.1694 35.119 51.6138 34.5864 53.4376 34.5864C54.406 34.5864 55.2856 34.7155 56.0764 34.9738C56.8834 35.2159 57.4402 35.466 57.7468 35.7243L58.3521 36.1842C58.8524 36.6523 59.1025 37.0477 59.1025 37.3705C59.1025 37.6933 58.9089 38.1371 58.5215 38.702C57.9728 39.509 57.4079 39.9124 56.8269 39.9124C56.4879 39.9124 56.0683 39.751 55.568 39.4283C55.5196 39.396 55.4227 39.3153 55.2775 39.1862C55.1484 39.0571 55.0273 38.9521 54.9144 38.8714C54.5754 38.6616 54.1397 38.5567 53.6071 38.5567C53.0906 38.5567 52.6548 38.6858 52.2998 38.9441C51.9608 39.1862 51.7914 39.5332 51.7914 39.9851C51.7914 40.4208 51.9931 40.7759 52.3966 41.0503C52.8162 41.3246 53.3327 41.5102 53.946 41.6071C54.5593 41.7039 55.2291 41.8572 55.9553 42.0671C56.6816 42.2607 57.3514 42.5028 57.9647 42.7933C58.578 43.0838 59.0864 43.5922 59.4899 44.3185C59.9095 45.0286 60.1193 45.9082 60.1193 46.9573C60.1193 48.0064 59.9095 48.9344 59.4899 49.7414C59.0703 50.5322 58.5215 51.1455 57.8437 51.5812C56.5364 52.4366 55.1403 52.8643 53.6555 52.8643C52.8969 52.8643 52.1787 52.7756 51.5009 52.598C50.823 52.4044 50.2743 52.1703 49.8546 51.896C48.9993 51.3795 48.4021 50.8792 48.0632 50.395L47.8453 50.1287ZM82.9245 34.9738C84.0059 35.3611 84.5465 35.8776 84.5465 36.5232C84.5465 36.733 84.4497 37.1284 84.256 37.7094L79.6079 51.1455C79.5756 51.2585 79.5191 51.3956 79.4384 51.557C79.3577 51.7184 79.1398 51.9363 78.7848 52.2107C78.4458 52.4689 78.0343 52.598 77.5501 52.598C77.082 52.598 76.6705 52.4689 76.3154 52.2107C75.9765 51.9363 75.7505 51.67 75.6376 51.4118L72.8051 43.0596C71.0136 48.3534 70.1017 51.0486 70.0695 51.1455C70.0372 51.2423 69.9646 51.3795 69.8516 51.557C69.7386 51.7346 69.6095 51.896 69.4642 52.0412C69.093 52.4124 68.6492 52.598 68.1327 52.598C67.6163 52.598 67.1886 52.477 66.8497 52.2349C66.5269 51.9928 66.309 51.7507 66.196 51.5086L66.0265 51.1455L61.3542 37.7094C61.1766 37.1768 61.0879 36.7814 61.0879 36.5232C61.0879 35.8776 61.6285 35.3692 62.7099 34.998C63.1779 34.8366 63.5976 34.7559 63.9688 34.7559C64.3561 34.7559 64.6466 34.885 64.8403 35.1432C65.0501 35.4015 65.2357 35.7969 65.3971 36.3295L68.0601 44.4153L70.6989 36.4505C70.9249 35.7727 71.3364 35.3046 71.9336 35.0464C72.1918 34.9334 72.5227 34.8769 72.9261 34.8769C73.3458 34.8769 73.7331 35.0141 74.0882 35.2885C74.4433 35.5467 74.6692 35.805 74.766 36.0632L77.5501 44.4638L80.2131 36.3295C80.3422 35.9583 80.4471 35.6839 80.5278 35.5064C80.6085 35.3288 80.7538 35.1594 80.9636 34.998C81.1895 34.8205 81.4639 34.7317 81.7867 34.7317C82.1095 34.7317 82.4888 34.8124 82.9245 34.9738ZM93.4637 36.1358L100 49.6445C100.274 50.1933 100.412 50.6048 100.412 50.8792C100.412 51.4602 99.9436 51.9847 99.0075 52.4528C98.4588 52.7271 98.023 52.8643 97.7003 52.8643C97.3936 52.8643 97.1354 52.7917 96.9256 52.6465C96.7319 52.5012 96.5866 52.3479 96.4898 52.1865C96.4091 52.0251 96.2881 51.783 96.1267 51.4602L94.8678 48.8456H88.1618L86.903 51.4602C86.7416 51.783 86.6125 52.017 86.5156 52.1623C86.4349 52.3075 86.2897 52.4608 86.0799 52.6222C85.8862 52.7675 85.628 52.8401 85.3052 52.8401C84.9985 52.8401 84.5708 52.7029 84.0221 52.4286C83.086 51.9767 82.618 51.4602 82.618 50.8792C82.618 50.6048 82.7551 50.1933 83.0295 49.6445L89.566 36.1116C89.7435 35.7404 90.0098 35.4418 90.3649 35.2159C90.7361 34.9899 91.1234 34.8769 91.5269 34.8769C92.3984 34.8769 93.044 35.2966 93.4637 36.1358ZM91.5027 41.946L89.9049 45.2627H93.1247L91.5027 41.946ZM114.832 38.4599C115.251 39.3153 115.461 40.2675 115.461 41.3166C115.461 42.3656 115.251 43.3179 114.832 44.1733C114.412 45.0125 113.872 45.6823 113.21 46.1826C111.87 47.2155 110.482 47.732 109.046 47.732H106.02V50.4676C106.02 50.8388 106.004 51.1213 105.971 51.3149C105.955 51.4925 105.882 51.7023 105.753 51.9444C105.527 52.3802 104.898 52.598 103.865 52.598C102.735 52.598 102.074 52.2995 101.88 51.7023C101.783 51.4279 101.735 51.0083 101.735 50.4434V37.0073C101.735 36.6361 101.743 36.3618 101.759 36.1842C101.791 35.9906 101.872 35.7727 102.001 35.5306C102.227 35.0948 102.856 34.8769 103.889 34.8769H109.07C110.49 34.8769 111.87 35.3934 113.21 36.4263C113.872 36.9266 114.412 37.6045 114.832 38.4599ZM109.07 43.447C109.554 43.447 110.03 43.2694 110.498 42.9144C110.966 42.5593 111.2 42.0267 111.2 41.3166C111.2 40.6064 110.966 40.0738 110.498 39.7188C110.03 39.3476 109.546 39.162 109.046 39.162H106.02V43.447H109.07Z" fill="white"/>
  <path d="M47.9627 29.1056C47.6347 29.1056 47.826 22.5466 47.9627 19.2671L55.3416 21.3168C56.0248 23.0932 57.3093 26.8099 56.9814 27.4658C56.5714 28.2857 48.3726 29.1056 47.9627 29.1056Z" fill="#F4BA46"/>
  <path d="M58.6987 21.8647C59.6509 22.9944 60.127 24.2614 60.127 25.6655C60.0947 27.2795 59.5379 28.6352 58.4566 29.7327C57.3914 30.814 56.0922 31.3547 54.5589 31.3547H48.1919C47.0621 31.3547 46.4004 31.048 46.2068 30.4347C46.1099 30.1603 46.0615 29.7407 46.0615 29.1758V15.7398C46.0615 15.3524 46.0696 15.07 46.0857 14.8924C46.118 14.7149 46.1987 14.5051 46.3278 14.263C46.5538 13.8272 47.1832 13.6094 48.2161 13.6094H54.3168C55.8017 13.6094 57.0444 14.1258 58.045 15.1588C59.0941 16.2078 59.6186 17.4667 59.6186 18.9354C59.6186 20.0006 59.312 20.977 58.6987 21.8647ZM55.842 25.4234C55.842 25.0361 55.7936 24.7294 55.6967 24.5035C55.616 24.2775 55.4708 24.1161 55.261 24.0193C54.9382 23.8902 54.4863 23.8256 53.9053 23.8256C53.3242 23.8256 52.8885 23.7126 52.598 23.4867C52.3075 23.2607 52.1622 22.8008 52.1622 22.1068C52.1622 21.3966 52.3075 20.9286 52.598 20.7026C52.9046 20.4767 53.4049 20.3637 54.0989 20.3637C54.7445 20.3637 55.1319 20.1943 55.261 19.8553C55.3094 19.6778 55.3336 19.3873 55.3336 18.9838C55.3336 18.5803 55.1964 18.2979 54.9221 18.1365C54.6638 17.9751 54.2684 17.8944 53.7358 17.8944H50.3465V27.0696H54.3168C55.3336 27.0696 55.842 26.5209 55.842 25.4234ZM71.9528 14.8924L78.4893 28.4012C78.7636 28.9499 78.9008 29.3614 78.9008 29.6358C78.9008 30.2168 78.4328 30.7414 77.4967 31.2094C76.948 31.4838 76.5122 31.621 76.1894 31.621C75.8828 31.621 75.6245 31.5483 75.4147 31.4031C75.221 31.2578 75.0758 31.1045 74.9789 30.9431C74.8982 30.7817 74.7772 30.5396 74.6158 30.2168L73.3569 27.6022H66.651L65.3921 30.2168C65.2307 30.5396 65.1016 30.7736 65.0048 30.9189C64.9241 31.0642 64.7788 31.2175 64.569 31.3789C64.3753 31.5241 64.1171 31.5968 63.7943 31.5968C63.4877 31.5968 63.06 31.4596 62.5112 31.1852C61.5752 30.7333 61.1071 30.2168 61.1071 29.6358C61.1071 29.3614 61.2443 28.9499 61.5187 28.4012L68.0551 14.8682C68.2327 14.497 68.499 14.1985 68.854 13.9725C69.2252 13.7466 69.6126 13.6336 70.0161 13.6336C70.8876 13.6336 71.5332 14.0532 71.9528 14.8924ZM69.9919 20.7026L68.3941 24.0193H71.6139L69.9919 20.7026ZM87.346 13.4157C89.7347 13.4157 91.8086 14.2792 93.5678 16.0061C95.327 17.733 96.2066 19.8795 96.2066 22.4457C96.2066 24.9957 95.3673 27.1746 93.6888 28.9822C92.0103 30.7736 89.9445 31.6694 87.4913 31.6694C85.0381 31.6694 82.948 30.7817 81.2211 29.0064C79.5103 27.231 78.655 25.1168 78.655 22.6636C78.655 21.324 78.897 20.0732 79.3812 18.9112C79.8654 17.733 80.511 16.7485 81.318 15.9577C82.1249 15.1668 83.0529 14.5455 84.102 14.0935C85.1511 13.6416 86.2324 13.4157 87.346 13.4157ZM82.94 22.5425C82.94 23.9789 83.3999 25.1491 84.3199 26.0529C85.256 26.9405 86.297 27.3844 87.4429 27.3844C88.5888 27.3844 89.6217 26.9486 90.5416 26.0771C91.4616 25.2055 91.9216 24.0354 91.9216 22.5667C91.9216 21.0981 91.4535 19.9199 90.5174 19.0322C89.5975 18.1445 88.5646 17.7007 87.4187 17.7007C86.2728 17.7007 85.2398 18.1526 84.3199 19.0564C83.3999 19.9441 82.94 21.1061 82.94 22.5425ZM109.676 27.2391C110.306 27.2391 110.758 27.3198 111.032 27.4812C111.323 27.6265 111.516 27.8443 111.613 28.1349C111.726 28.4254 111.783 28.7966 111.783 29.2485C111.783 29.7004 111.742 30.0635 111.661 30.3379C111.581 30.6123 111.484 30.8221 111.371 30.9673C111.258 31.1126 111.089 31.2175 110.863 31.282C110.604 31.3789 110.193 31.4273 109.628 31.4273H99.5569C99.1857 31.4273 98.8306 31.3305 98.4917 31.1368C97.7816 30.7333 97.4265 30.0958 97.4265 29.2243C97.4265 28.8046 97.5233 28.4657 97.717 28.2075L105.222 17.8218H99.6537C99.2664 17.8218 98.9759 17.8137 98.7822 17.7975C98.6047 17.7653 98.3868 17.6926 98.1286 17.5797C97.6605 17.3537 97.4265 16.7485 97.4265 15.764C97.4265 14.7311 97.6444 14.1016 98.0801 13.8757C98.3222 13.7466 98.532 13.6739 98.7096 13.6578C98.9033 13.6255 99.1938 13.6094 99.5811 13.6094H109.313C109.684 13.6094 110.039 13.7062 110.378 13.8999C110.717 14.0935 110.976 14.3518 111.153 14.6746C111.347 14.9974 111.444 15.3766 111.444 15.8124C111.444 16.2482 111.347 16.5952 111.153 16.8534L103.648 27.2391H109.676ZM113.346 15.764C113.346 15.3928 113.354 15.1184 113.37 14.9409C113.402 14.7472 113.483 14.5293 113.612 14.2872C113.838 13.8515 114.468 13.6336 115.501 13.6336C116.63 13.6336 117.3 13.9322 117.51 14.5293C117.591 14.8037 117.631 15.2233 117.631 15.7882V29.2485C117.631 29.6358 117.615 29.9183 117.582 30.0958C117.566 30.2733 117.494 30.4831 117.365 30.7252C117.139 31.161 116.509 31.3789 115.476 31.3789C114.347 31.3789 113.685 31.0722 113.491 30.4589C113.394 30.2007 113.346 29.7891 113.346 29.2243V15.764Z" fill="#63482A"/>
</svg>
